<svg width="545" height="545" viewBox="0 0 545 545" fill="none" xmlns="http://www.w3.org/2000/svg">
<g clip-path="url(#clip0_11_26)">
<rect width="545" height="545" rx="114" fill="white"/>
<path d="M319.948 223.4C324.064 223.4 327.4 226.736 327.4 230.852V445C327.4 449.418 323.818 453 319.4 453H226.6C222.182 453 218.6 449.418 218.6 445L218.6 324.748C218.6 268.775 263.975 223.4 319.948 223.4Z" fill="#111111"/>
<path d="M275.366 184.2L184.2 184.2L184.2 275.4C184.2 225.043 225.013 184.218 275.366 184.2Z" fill="#111111"/>
<path d="M93 176.845C93 130.539 130.539 93 176.845 93H445.645C449.707 93 453 96.2929 453 100.355C453 146.661 415.461 184.2 369.155 184.2H100.355C96.2929 184.2 93 180.907 93 176.845Z" fill="#111111"/>
<path d="M176.2 168.2C180.618 168.2 184.2 171.782 184.2 176.2L184.2 280.045C184.2 284.107 180.907 287.4 176.845 287.4C130.539 287.4 93 249.861 93 203.555L93 176.2C93 171.782 96.5817 168.2 101 168.2L176.2 168.2Z" fill="#111111"/>
</g>
<defs>
<clipPath id="clip0_11_26">
<rect width="545" height="545" fill="white"/>
</clipPath>
</defs>
</svg>
